<?xml version="1.0" encoding="utf-8" ?><svg xmlns="http://www.w3.org/2000/svg" xmlns:xlink="http://www.w3.org/1999/xlink" width="1080" height="1080" viewBox="0 0 1080 1080"><path fill="#17462B" d="M237.401 614.259C236.322 596.363 237.296 570.627 237.173 552.142L236.355 428.502L237.045 210.409C237.174 197.593 236.345 185.358 237.128 172.368C238.023 157.523 236.081 148.099 247.807 136.648C261.509 123.266 276.083 125.247 293.632 125.257L331.635 125.32L454.478 125.299L682.211 125.313L758.25 125.299C773.778 125.29 790.104 125.034 805.576 125.481C815.864 125.614 825.668 129.869 832.793 137.292C838.079 142.736 842.347 150.219 842.738 157.767C843.453 171.583 843.118 186.787 843.103 200.627L843.039 287.841L843.181 587.581C843.308 602.585 846.681 615.82 836.242 627.001C831.051 632.561 808.489 647.663 807.343 651.349C807.435 663.321 807.463 675.293 807.425 687.265C807.43 703.991 809.769 723.727 796.617 736.576C793.224 739.891 788.774 743.59 784.182 744.92C776.352 750.522 743.805 749.398 733.428 749.423C714.551 749.47 695.341 749.402 676.443 749.393L463.62 748.492L357.642 748.488C348.192 748.503 309.866 749.928 303.869 747.422C295.954 746.397 289.765 742.555 284.1 737.107C270.94 724.451 273.234 707.416 273.24 690.745L273.378 650.531C261.836 641.017 240.058 628.793 237.401 614.259Z"/><path fill="#011302" d="M805.576 125.481C815.864 125.614 825.668 129.869 832.793 137.292C838.079 142.736 842.347 150.219 842.738 157.767C843.453 171.583 843.118 186.787 843.103 200.627L843.039 287.841L843.181 587.581C839.127 580.308 842.599 523.395 842.525 512.884L841.405 287.811L841.477 207.337C841.527 191.392 841.874 174.644 840.937 158.727C840.104 146.676 830.932 134.129 819.633 129.778C815.951 128.36 808.066 127.963 805.576 125.481Z"/><path fill="#011302" d="M237.401 614.259C240.998 619.194 243.734 624.263 248.278 628.465C253.482 633.276 271.913 646.211 274.121 649.22C278.471 655.15 271.032 711.01 278.438 726.041C281.936 733.14 288.354 739.152 295.314 742.787C298.038 744.209 302.169 744.881 303.869 747.422C295.954 746.397 289.765 742.555 284.1 737.107C270.94 724.451 273.234 707.416 273.24 690.745L273.378 650.531C261.836 641.017 240.058 628.793 237.401 614.259Z"/><path fill="#011302" d="M807.343 651.349C807.435 663.321 807.463 675.293 807.425 687.265C807.43 703.991 809.769 723.727 796.617 736.576C793.224 739.891 788.774 743.59 784.182 744.92C785.818 740.606 799.037 736.21 803.021 722.491C808.7 702.938 801.163 668.268 806.251 651.704L807.343 651.349Z"/><path fill="#17462B" d="M253.977 252.042C253.727 231.677 253.684 211.31 253.849 190.944C253.863 180.29 253.406 169.696 254.19 159.086C254.959 148.675 264.011 142.656 273.879 142.597C285.507 142.529 297.176 142.583 308.821 142.54L395.366 142.636L582.715 142.558L676.466 142.727C684.526 142.755 705.402 141.798 712.064 142.835L712.632 142.896C723.521 141.868 745.557 142.731 757.685 142.686L789.136 142.557C795.162 142.539 804.108 142.32 809.861 143.043C813.398 143.5 816.744 144.909 819.542 147.121C829.139 154.818 826.456 177.405 826.432 188.986L826.388 237.449L826.374 393.305L826.4 407.125C801.574 407.317 776.746 407.336 751.92 407.181C751.813 418.412 751.825 429.644 751.954 440.874L751.959 454.557C751.891 467.844 752.994 482.855 750.492 495.772C749.33 501.776 740.015 510.315 734.116 511.436C724.653 513.234 714.104 512.593 704.411 512.579L659.214 512.549L646.962 512.482L615.702 512.548C611.526 512.565 607.295 512.501 603.113 512.473C595.477 512.273 586.687 512.535 578.959 512.577L564.928 512.59C541.771 511.883 514.833 512.536 491.398 512.577C491.283 529.098 491.288 545.618 491.415 562.138C483.123 570.903 474.733 579.574 466.247 588.151C461.631 592.743 452.12 601.612 448.255 606.269C448.226 611.771 449.048 646.791 447.45 648.953C447.393 649.03 447.308 649.081 447.238 649.146L441.07 649.078C432.951 649.525 420.921 649.055 412.499 649.071L350.805 649.182C341.505 649.196 332.199 648.734 322.881 649.167C313.605 649.553 314.864 660.615 315.008 667.247C315.468 688.535 314.889 709.808 314.99 731.118C285.784 729.886 289.937 710.978 290.009 688.809L289.98 643.799L289.504 643.162C282.963 634.273 261.18 624.291 254.331 612.67C253.788 605.425 253.979 594.283 253.906 586.744C253.769 568.437 253.731 550.129 253.791 531.821L253.744 469.863C253.753 458.625 253.528 446.295 254.031 435.136C253.488 432.039 253.795 424.127 253.785 420.559L253.845 387.018L253.831 311.322C253.832 297.294 253.48 281.448 254.083 267.542L253.977 252.042Z"/><path fill="#377337" d="M253.977 252.042C253.727 231.677 253.684 211.31 253.849 190.944C253.863 180.29 253.406 169.696 254.19 159.086C254.959 148.675 264.011 142.656 273.879 142.597C285.507 142.529 297.176 142.583 308.821 142.54L395.366 142.636L582.715 142.558L676.466 142.727C684.526 142.755 705.402 141.798 712.064 142.835L712.632 142.896C713.558 148.742 704.192 157.257 700.23 161.751C693.998 168.738 687.848 175.798 681.782 182.929C679.198 185.987 674.904 190.883 672.991 194.138C672.396 208.273 673.23 222.784 672.823 236.937C667.7 242.384 647.232 263.232 644.424 268.069C644.506 271.302 644.932 279.794 644.648 282.621L631.777 282.66C615.738 282.558 599.699 282.543 583.661 282.616L571.764 282.634C560.655 282.637 548.246 283.003 537.272 282.578L532.566 282.603L511.399 282.621L498.956 282.614C488.326 282.29 476.781 282.576 466.093 282.653L453.594 282.617L382.752 282.582C370.954 282.581 357.922 281.846 346.371 283.435C337.173 284.699 329.584 296.783 327.548 305.081C327.717 301.554 327.458 298.019 326.778 294.554C323.624 279.279 317.659 275.111 307.359 264.322C303.659 260.447 300.468 255.672 295.883 252.676C283.46 251.587 267.487 252.658 253.977 252.042Z"/><path fill="#5E954F" d="M712.064 142.835L712.632 142.896C713.558 148.742 704.192 157.257 700.23 161.751C693.998 168.738 687.848 175.798 681.782 182.929C679.198 185.987 674.904 190.883 672.991 194.138C672.396 208.273 673.23 222.784 672.823 236.937C667.7 242.384 647.232 263.232 644.424 268.069C644.506 271.302 644.932 279.794 644.648 282.621L631.777 282.66C631.533 275.455 631.749 267.213 631.778 259.933C638.773 250.473 653.094 238.612 660.283 228.136C660.316 223.067 659.783 192.946 660.673 190.416C664.892 178.426 692.776 155.039 698.085 142.94C702.827 142.979 707.315 143.01 712.064 142.835Z"/><path fill="#5E954F" d="M608.321 207.775C606.645 204.909 605.077 202.531 604.316 199.266C600.669 183.615 612.649 171.22 628.27 176.481C632.681 177.989 636.253 181.284 638.112 185.559C640.191 190.239 640.265 196.605 638.343 201.506C634.913 210.252 622.903 211.259 619.16 214.765C612.844 220.682 605.222 228.877 599.138 235.256C595.769 238.788 586.482 248.242 584.057 251.801C583.59 261.066 584.454 274.179 583.661 282.616L571.764 282.634C571.373 270.94 571.491 258.029 571.599 246.282C573.513 242.727 580.483 236.327 583.666 233.046C591.787 224.528 600.005 216.104 608.321 207.775Z"/><path fill="#17462B" d="M619.923 186.404C623.967 185.491 627.997 187.985 628.983 192.012C629.969 196.039 627.547 200.113 623.538 201.171C620.881 201.872 618.052 201.084 616.139 199.11C614.226 197.137 613.528 194.284 614.312 191.65C615.097 189.016 617.242 187.01 619.923 186.404Z"/><path fill="#5E954F" d="M409.753 142.945L423.846 142.959C423.804 152.467 423.131 176.414 424.03 184.733C437.287 199.18 452.144 213.449 465.643 228.168C466.598 242.934 466.32 267.344 466.093 282.653L453.594 282.617C453.222 267.04 453.912 250.916 453.418 235.467C449.942 231.007 444.521 225.86 440.436 221.764L420.982 202.286C417.561 198.864 413.273 194.84 410.382 191.053C408.982 177.005 410.072 157.687 409.753 142.945Z"/><path fill="#5E954F" d="M532.025 206.792C526.947 204.114 522.325 200.809 520.599 194.979C512.866 168.848 549.171 159.664 556.19 184.737C558.749 193.88 551.881 201.278 544.777 206.198L544.781 282.246C542.699 282.308 539.229 282.307 537.272 282.578L532.566 282.603C531.823 279.868 532.291 266.818 532.177 263.277C531.602 245.358 533.035 224.533 532.025 206.792Z"/><path fill="#17462B" d="M537.045 180.81C541.147 180.341 544.876 183.224 545.456 187.312C546.036 191.4 543.256 195.207 539.185 195.897C536.451 196.361 533.682 195.304 531.952 193.137C530.223 190.97 529.806 188.035 530.865 185.472C531.924 182.91 534.29 181.124 537.045 180.81Z"/><path fill="#5E954F" d="M455.19 142.962L468.164 142.953C468.01 157.144 467.989 171.335 468.101 185.526C471.409 190.189 475.917 193.599 479.779 197.687C489.239 207.704 502.568 218.937 511.482 229.128L511.542 264.711C511.547 269.098 511.798 278.676 511.399 282.621L498.956 282.614C498.473 266.816 499.448 250.374 498.805 234.476C495.792 230.167 491.2 226.4 487.599 222.631C478.662 213.277 463.026 200.214 455.69 190.332C454.366 176.989 455.826 157.151 455.19 142.962Z"/><path fill="#17462B" d="M299.494 162.428C314.475 161.435 327.45 172.72 328.544 187.695C329.638 202.669 318.441 215.72 303.475 216.915C288.363 218.122 275.159 206.794 274.055 191.675C272.95 176.556 284.368 163.429 299.494 162.428Z"/><path fill="#D4C8A7" d="M298.594 177.076C305.505 175.611 312.298 180.014 313.783 186.92C315.269 193.826 310.886 200.633 303.984 202.138C297.053 203.651 290.212 199.246 288.721 192.31C287.229 185.375 291.654 178.547 298.594 177.076Z"/><path fill="#5E954F" d="M369.566 142.895C373.82 142.83 378.074 142.843 382.326 142.934L382.272 225.583C399.087 232.249 400.835 253.419 384.291 260.92C382.019 261.664 379.532 262.277 377.132 262.227C371.96 262.108 367.066 259.863 363.602 256.021C360.286 252.281 358.785 247.068 359.22 242.135C359.908 234.348 364.322 230.796 369.682 226.177C369.343 198.558 369.568 170.541 369.566 142.895Z"/><path fill="#17462B" d="M375.519 236.569C379.54 235.333 383.8 237.598 385.024 241.623C386.248 245.647 383.969 249.901 379.941 251.112C375.93 252.317 371.7 250.051 370.482 246.045C369.263 242.038 371.516 237.8 375.519 236.569Z"/><path fill="#377337" d="M254.031 435.136L327.516 435.118C327.529 445.307 327.885 458.316 327.521 468.318L327.616 482.636C328.51 516.826 352.397 512.594 377.187 512.494L426.863 512.593L439.656 512.484C452.343 512.493 466.178 512.219 478.767 512.541L491.398 512.577C491.283 529.098 491.288 545.618 491.415 562.138C483.123 570.903 474.733 579.574 466.247 588.151C461.631 592.743 452.12 601.612 448.255 606.269C448.226 611.771 449.048 646.791 447.45 648.953C447.393 649.03 447.308 649.081 447.238 649.146L441.07 649.078C432.951 649.525 420.921 649.055 412.499 649.071L350.805 649.182C341.505 649.196 332.199 648.734 322.881 649.167C313.605 649.553 314.864 660.615 315.008 667.247C315.468 688.535 314.889 709.808 314.99 731.118C285.784 729.886 289.937 710.978 290.009 688.809L289.98 643.799L289.504 643.162C282.963 634.273 261.18 624.291 254.331 612.67C253.788 605.425 253.979 594.283 253.906 586.744C253.769 568.437 253.731 550.129 253.791 531.821L253.744 469.863C253.753 458.625 253.528 446.295 254.031 435.136Z"/><path fill="#5E954F" d="M285.528 506.513C290.761 499.652 320.491 470.408 327.521 468.318L327.616 482.636C317.716 492.064 308.062 502.105 298.173 511.339C297.735 521.91 297.953 533.612 297.935 544.267C300.288 547.597 310.633 558.03 313.881 561.389C324.331 572.029 334.724 582.724 345.059 593.475C349.678 598.252 355.074 603.379 359.351 608.372C360.23 617.814 359.57 638.598 359.55 648.633L346.554 648.713C346.694 637.49 346.837 624.297 346.315 613.186C344.144 610.275 336.588 602.895 333.691 599.881L300.759 566.042C296.501 561.658 288.949 554.405 285.474 549.964C285.22 535.481 285.238 520.995 285.528 506.513Z"/><path fill="#5E954F" d="M478.767 512.541L491.398 512.577C491.283 529.098 491.288 545.618 491.415 562.138C483.123 570.903 474.733 579.574 466.247 588.151C461.631 592.743 452.12 601.612 448.255 606.269C448.226 611.771 449.048 646.791 447.45 648.953C447.393 649.03 447.308 649.081 447.238 649.146L441.07 649.078C439.087 648.876 437.259 648.966 435.714 647.951C435.115 642.95 435.499 634.69 435.507 629.278L435.282 601.766C438.552 597.627 446.794 589.801 450.655 585.991L478.694 558.31C478.875 543.079 478.623 527.797 478.767 512.541Z"/><path fill="#5E954F" d="M426.863 512.593L439.656 512.484C439.703 521.843 440.113 535.69 439.258 544.711C435.439 549.726 431.443 552.67 427.177 556.991C417.954 566.332 406.104 575.943 397.381 585.454C396.752 591.586 397.035 602.147 397.04 608.537L397.097 648.657L384.441 648.758L384.483 582.165C387.209 577.587 392.614 572.606 396.545 568.922L415.327 551.384C418.673 548.254 424.672 542.888 427.32 539.414C427.12 530.475 426.968 521.534 426.863 512.593Z"/><path fill="#5E954F" d="M354.41 531.43C364.555 530.254 373.744 537.497 374.969 547.636C376.195 557.776 368.996 567 358.862 568.274C348.659 569.558 339.358 562.299 338.124 552.089C336.89 541.88 344.194 532.614 354.41 531.43Z"/><path fill="#17462B" d="M355.883 541.979C360.077 541.506 363.871 544.495 364.392 548.684C364.913 552.872 361.967 556.7 357.785 557.268C355.037 557.642 352.3 556.51 350.619 554.304C348.938 552.099 348.573 549.16 349.662 546.609C350.751 544.059 353.127 542.29 355.883 541.979Z"/><path fill="#377337" d="M712.632 142.896C723.521 141.868 745.557 142.731 757.685 142.686L789.136 142.557C795.162 142.539 804.108 142.32 809.861 143.043C813.398 143.5 816.744 144.909 819.542 147.121C829.139 154.818 826.456 177.405 826.432 188.986L826.388 237.449L826.374 393.305L826.4 407.125C801.574 407.317 776.746 407.336 751.92 407.181L751.887 393.543L751.956 362.076L751.862 348.999C751.885 339.805 751.557 328.717 751.931 319.729C753.644 278.602 732.287 282.467 700.999 282.527L644.648 282.621C644.932 279.794 644.506 271.302 644.424 268.069C647.232 263.232 667.7 242.384 672.823 236.937C673.23 222.784 672.396 208.273 672.991 194.138C674.904 190.883 679.198 185.987 681.782 182.929C687.848 175.798 693.998 168.738 700.23 161.751C704.192 157.257 713.558 148.742 712.632 142.896Z"/><path fill="#5E954F" d="M744.144 265.951C736.467 267.792 727.822 268.31 722.127 261.428C717.008 255.243 715.178 246.705 719.7 239.585C722.413 235.292 726.75 232.281 731.721 231.241C742.463 228.899 752.173 235.559 753.757 246.372C754.331 250.29 753.884 253.563 753.524 257.479C758.928 263.049 788.288 291.536 790.915 295.875C791.13 307.067 791.85 331.082 790.112 342.537C789.686 345.348 775.097 359.308 771.46 361.688L751.956 362.076L751.862 348.999C756.637 349.034 762.325 349.221 767.028 349.011C770.73 345.362 774.472 341.744 777.999 337.927C778.538 329.657 778.703 309.28 778.163 301.016C775.742 297.048 770.177 292.147 766.791 288.663C759.52 281.182 751.012 273.724 744.144 265.951Z"/><path fill="#17462B" d="M735.131 241.365C737.881 241.189 740.514 242.507 742.021 244.815C743.528 247.122 743.677 250.062 742.411 252.51C741.146 254.959 738.66 256.536 735.906 256.64C731.724 256.798 728.191 253.565 727.979 249.385C727.767 245.205 730.954 241.631 735.131 241.365Z"/><path fill="#5E954F" d="M751.887 393.543C774.887 392.658 803.018 393.425 826.374 393.305L826.4 407.125C801.574 407.317 776.746 407.336 751.92 407.181L751.887 393.543Z"/><path fill="#17462B" d="M776.813 162.424C791.829 160.7 805.394 171.487 807.097 186.505C808.8 201.523 797.993 215.074 782.973 216.755C767.982 218.434 754.465 207.654 752.766 192.665C751.066 177.677 761.827 164.144 776.813 162.424Z"/><path fill="#D4C8A7" d="M777.482 177.104C784.304 175.81 790.908 180.209 792.342 187.003C793.775 193.797 789.512 200.489 782.749 202.062C778.249 203.108 773.535 201.64 770.426 198.223C767.316 194.806 766.297 189.976 767.761 185.594C769.225 181.212 772.943 177.964 777.482 177.104Z"/><path fill="#377337" d="M253.977 252.042C267.487 252.658 283.46 251.587 295.883 252.676C300.468 255.672 303.659 260.447 307.359 264.322C317.659 275.111 323.624 279.279 326.778 294.554C327.458 298.019 327.717 301.554 327.548 305.081C326.82 321.742 327.129 344.147 327.558 361.225C327.494 381.463 327.884 402.882 327.561 422.956L327.516 435.118L254.031 435.136C253.488 432.039 253.795 424.127 253.785 420.559L253.845 387.018L253.831 311.322C253.832 297.294 253.48 281.448 254.083 267.542L253.977 252.042Z"/><path fill="#5E954F" d="M253.977 252.042C267.487 252.658 283.46 251.587 295.883 252.676C300.468 255.672 303.659 260.447 307.359 264.322C317.659 275.111 323.624 279.279 326.778 294.554C327.458 298.019 327.717 301.554 327.548 305.081C326.82 321.742 327.129 344.147 327.558 361.225C324.517 361.09 321.477 360.927 318.44 360.736C304.923 383.263 279.933 374.674 284.245 349.853C285.751 345.075 289.903 341.913 293.937 339.903C306.883 333.452 312.632 344.642 324.155 348.812C322.167 344.895 316.039 337.551 314.925 334.645C311.296 325.185 314.811 308.73 313.145 298.562C311.587 289.059 299.536 272.71 292.322 267.433C280.191 267.038 266.314 267.443 254.083 267.542L253.977 252.042Z"/><path fill="#17462B" d="M299.246 348.84C303.163 347.771 307.205 350.083 308.269 354.001C309.333 357.92 307.016 361.959 303.096 363.018C299.183 364.075 295.153 361.763 294.091 357.851C293.029 353.94 295.336 349.907 299.246 348.84Z"/><path fill="#5E954F" d="M254.206 422.782C278.463 423.329 303.222 422.613 327.561 422.956L327.516 435.118L254.031 435.136C254.368 432.671 254.204 425.585 254.206 422.782Z"/><path fill="#D4C8A7" d="M351.083 299.609C352.555 299.516 354.027 299.441 355.501 299.384C375.822 298.605 401.367 299.352 422.223 299.351L557.405 299.373L669.766 299.354C688.304 299.359 707.067 299.269 725.611 299.474C728.136 299.502 731.607 300.171 733.352 302.181C734.635 303.66 735.285 308.874 735.319 310.974C735.528 323.753 735.416 336.666 735.398 349.454L735.37 418.377L735.399 463.89C735.407 472.122 735.575 480.725 735.12 488.937C734.955 491.912 732.889 493.168 730.643 494.928C725.988 496.273 706.54 495.72 700.78 495.695L661.083 495.672L460.625 495.746L386.945 495.786C375.417 495.799 363.047 495.998 351.484 495.552C348.753 495.446 346.509 492.378 344.979 490.36C344.202 481.952 344.533 470.165 344.529 461.415L344.524 412.81L344.507 345.672C344.492 333.905 343.89 316.621 345.385 304.836C345.632 302.885 349.355 300.582 351.083 299.609Z"/><path fill="#354F36" d="M367.421 320.697C382.966 319.924 404.394 320.566 420.311 320.57L521.264 320.592L645.715 320.594C666.593 320.593 687.577 320.467 708.451 320.621C711.076 320.64 713.514 320.792 715.702 322.281C718.255 324.018 718.989 325.101 719.33 328.212C720.168 335.857 719.841 344.397 719.842 352.162L719.816 397.575L719.749 445.463C719.764 453.341 721.69 468.105 717.268 474.706C715.642 477.134 712.516 477.797 709.713 478.111L460.988 478.064L398.804 478.076C388.89 478.111 377.809 478.437 367.951 477.762C365.981 477.627 362.285 475.621 361.548 473.779C360.764 471.819 360.245 467.179 360.235 464.914C360.124 439.99 360.164 414.931 360.176 390.019L360.305 347.592C360.314 337.243 356.734 325.639 367.421 320.697Z"/><path fill="#17462B" d="M416.98 345.062C419.534 344.891 422.079 344.934 424.634 345.037C434.557 345.436 444.515 344.828 454.427 345.477C456.399 346.699 457.311 347.52 459.097 349.042C461.012 354.445 460.796 369.802 460.922 376.141C469.767 376.193 491.11 372.802 490.476 385.816C490.277 389.889 490.338 395.636 490.506 399.574C491.827 430.674 489.539 426.453 460.905 426.677C460.935 434.497 461.236 444.889 460.232 452.467C457.561 455.94 456.831 456.729 452.725 458.179C451.244 458.436 449.706 458.664 448.218 458.671C406.584 458.887 409.311 463.843 408.594 426.658C402.726 426.504 385.52 427.205 381.585 423.584C376.054 416.535 379.07 400.357 378.159 392.402C375.836 372.126 394.537 376.206 408.921 376.452C408.902 371.641 408.707 366.786 408.711 361.973C408.718 354.245 408.633 347.906 416.98 345.062Z"/><path fill="#75766A" d="M439.234 356.751C442.037 356.715 444.978 356.821 447.792 356.876C449.055 394.756 442.374 386.164 478.803 388.464C478.873 397.151 478.855 405.838 478.749 414.524C443.322 415.956 448.094 409.016 447.937 446.34L429.77 446.492C427.092 446.531 424.384 446.412 421.704 446.331C419.77 411.897 429.028 414.707 390.934 414.534C390.545 406.474 390.791 396.641 390.787 388.449C399.029 387.95 408.067 388.34 416.604 387.982C419.388 386.016 419.543 385.943 421.556 383.069C421.431 374.323 421.513 365.576 421.803 356.834L439.234 356.751Z"/><path fill="#17462B" d="M643.508 349.714C663.588 347.239 678.071 362.328 676.491 382.006C676.319 384.149 676.2 386.373 676.028 388.528C687.188 388.514 693.496 390.031 700.819 399.092C706.803 406.497 707.56 412.73 706.544 421.829C703.669 447.592 669.784 454.594 655.141 434.464C649.334 426.437 649.691 416.726 651.193 407.3C647.464 406.94 644.492 406.616 640.813 405.962C638.941 405.652 637.073 405.326 635.208 404.981C640.252 417.911 639.621 431.057 628.382 439.604C607.196 455.715 576.854 440.922 581.62 412.912C585.311 391.223 601.563 386.071 620.539 389.107C618.114 369.454 621.19 354.582 643.508 349.714Z"/><path fill="#E7423D" d="M676.411 398.915C686.822 397.711 696.222 405.213 697.358 415.631C698.493 426.049 690.928 435.4 680.503 436.466C670.175 437.522 660.93 430.044 659.806 419.723C658.681 409.402 666.098 400.108 676.411 398.915Z"/><path fill="#E7423D" d="M644.339 359.82C654.558 357.86 664.434 364.545 666.412 374.76C668.39 384.976 661.722 394.864 651.509 396.859C641.272 398.859 631.355 392.172 629.373 381.931C627.39 371.691 634.095 361.785 644.339 359.82Z"/><path fill="#E7423D" d="M604.133 399.652C610.63 397.753 617.647 399.506 622.487 404.239C627.327 408.972 629.237 415.947 627.484 422.486C625.731 429.024 620.588 434.108 614.029 435.785C604.125 438.317 594.02 432.442 591.32 422.583C588.619 412.724 594.321 402.52 604.133 399.652Z"/><path fill="#377337" d="M751.92 407.181C776.746 407.336 801.574 407.317 826.4 407.125L826.41 542.77C826.411 565.79 826.766 590.015 826.294 612.9C819.332 622.919 795.147 634.522 791.501 642.191C789.612 646.165 790.62 651.909 790.652 656.206C790.737 667.499 792.439 710.935 787.919 719.839C785.097 725.398 779.111 729.137 773.135 730.421C771.396 730.794 769.673 730.995 767.958 730.438C767.349 728.336 767.589 716.041 767.589 713.047L767.619 678.316C767.624 670.502 767.845 662.121 767.169 654.404C765.441 651.816 763.496 649.333 760.127 649.256C744.538 648.899 728.75 649.121 713.152 649.037C706.011 648.999 698.182 649.573 691.247 649.082L687.792 649.108C687.397 644.984 687.689 634.795 687.696 630.109C687.788 616.689 687.759 603.269 687.608 589.849C678.925 580.34 667.011 570.49 658.05 560.889C654.811 557.419 649.398 552.799 646.964 548.853C646.727 537.133 646.584 524.223 646.962 512.482L659.214 512.549L704.411 512.579C714.104 512.593 724.653 513.234 734.116 511.436C740.015 510.315 749.33 501.776 750.492 495.772C752.994 482.855 751.891 467.844 751.959 454.557L751.954 440.874C751.825 429.644 751.813 418.412 751.92 407.181Z"/><path fill="#5E954F" d="M751.954 440.874L764.956 441.399C770.907 445.036 795.078 463.984 799.432 469.02C799.652 485.136 799.68 501.253 799.514 517.37C795.417 521.594 759.096 555.87 759.177 557.944C759.217 558.988 759.434 559.863 759.647 560.877C760.814 566.442 759.812 571.324 756.563 575.998C754.751 578.604 752.2 580.896 749.941 583.134C749.761 605.012 749.72 626.892 749.819 648.771C745.64 648.774 741.342 648.832 737.178 648.692L737.213 583.514C732.433 581.846 727.964 578.33 725.647 573.775C723.384 569.238 723.093 563.969 724.842 559.21C726.568 554.399 730.169 550.492 734.823 548.379C740.38 545.907 744.724 546.746 750.151 548.424C757.578 541.018 765.066 533.673 772.612 526.388C777.04 522.101 782.929 516.726 786.884 512.154C787.1 501.237 787.784 485.298 786.818 474.812C782.773 470.813 766.567 457.263 761.93 454.656L751.959 454.557L751.954 440.874Z"/><path fill="#17462B" d="M741.109 557.679C745.17 557.248 748.845 560.105 749.43 564.146C750.014 568.188 747.298 571.969 743.281 572.705C740.544 573.207 737.752 572.172 736.003 570.008C734.254 567.845 733.828 564.898 734.893 562.327C735.957 559.756 738.342 557.973 741.109 557.679Z"/><path fill="#5E954F" d="M646.962 512.482L659.214 512.549L659.18 543.147C661.761 547.061 666.185 550.849 669.454 554.301C678.867 564.241 691.737 574.821 700.626 585.024C700.529 606.215 700.578 627.407 700.773 648.598C697.87 648.683 694.051 648.67 691.247 649.082L687.792 649.108C687.397 644.984 687.689 634.795 687.696 630.109C687.788 616.689 687.759 603.269 687.608 589.849C678.925 580.34 667.011 570.49 658.05 560.889C654.811 557.419 649.398 552.799 646.964 548.853C646.727 537.133 646.584 524.223 646.962 512.482Z"/><path fill="#377337" d="M578.959 512.577C586.687 512.535 595.477 512.273 603.113 512.473C607.295 512.501 611.526 512.565 615.702 512.548L646.962 512.482C646.584 524.223 646.727 537.133 646.964 548.853C649.398 552.799 654.811 557.419 658.05 560.889C667.011 570.49 678.925 580.34 687.608 589.849C687.759 603.269 687.788 616.689 687.696 630.109C687.689 634.795 687.397 644.984 687.792 649.108L447.238 649.146C447.308 649.081 447.393 649.03 447.45 648.953C449.048 646.791 448.226 611.771 448.255 606.269C452.12 601.612 461.631 592.743 466.247 588.151C474.733 579.574 483.123 570.903 491.415 562.138C491.288 545.618 491.283 529.098 491.398 512.577C514.833 512.536 541.771 511.883 564.928 512.59L578.959 512.577Z"/><path fill="#5E954F" d="M564.928 512.59L578.959 512.577C578.976 529.412 579.642 551.426 578.749 567.85C574.565 572.513 568.625 577.626 563.916 582.01C556.736 588.693 550.166 598.304 540.328 600.365C526.716 626.072 497.929 614.048 504.22 589.44C507.078 578.26 525.125 573.466 533.472 581.771C535.62 583.907 536.706 585.715 538.666 587.761L539.136 588.242C545.679 580.443 557.599 572.763 565.31 562.815L564.928 512.59Z"/><path fill="#17462B" d="M521.77 588.341C525.851 588.407 529.166 591.657 529.313 595.735C529.46 599.814 526.388 603.294 522.322 603.654C519.497 603.904 516.764 602.574 515.216 600.197C513.669 597.82 513.56 594.783 514.932 592.3C516.304 589.818 518.934 588.295 521.77 588.341Z"/><path fill="#5E954F" d="M603.113 512.473C607.295 512.501 611.526 512.565 615.702 512.548C614.879 537.095 616.2 563.442 615.647 588.271C648.661 605.246 614.736 641.424 596.273 618.508C593.13 614.683 591.717 609.725 592.372 604.819C593.389 597.637 597.911 593.705 603.171 589.606C603.903 565.49 603.319 536.874 603.113 512.473Z"/><path fill="#17462B" d="M608.694 599.939C612.751 598.701 617.039 601.006 618.246 605.072C619.452 609.138 617.116 613.409 613.04 614.585C609.009 615.748 604.793 613.442 603.599 609.419C602.405 605.396 604.68 601.163 608.694 599.939Z"/><path fill="#EDAC44" d="M332.901 665.744C338.877 665.554 346.536 665.371 352.412 665.761L352.432 731.25C345.927 731.186 339.307 731.26 332.791 731.272C333.205 709.851 332.871 687.238 332.901 665.744Z"/><path fill="#EDAC44" d="M367.293 665.702C373.745 665.599 380.199 665.644 386.649 665.835L386.594 731.297L367.419 731.231C367.223 709.386 367.62 687.547 367.293 665.702Z"/><path fill="#EDAC44" d="M535.32 665.707C541.707 665.574 548.096 665.565 554.483 665.68C554.388 687.535 554.403 709.39 554.527 731.245L535.316 731.263C535.024 709.669 535.284 687.354 535.32 665.707Z"/><path fill="#EDAC44" d="M400.888 665.687C407.234 665.591 413.581 665.584 419.927 665.666L419.89 731.301C413.817 731.067 407.043 731.264 400.91 731.316C400.392 710.295 400.845 686.797 400.888 665.687Z"/><path fill="#EDAC44" d="M568.974 665.659C575.102 665.519 581.629 665.632 587.79 665.642C587.684 687.513 587.699 709.385 587.835 731.257L568.995 731.221L568.974 665.659Z"/><path fill="#EDAC44" d="M503.516 665.755C509.245 665.539 515.058 665.762 520.796 665.901L520.756 731.282L502.375 731.291C502.601 713.302 502.306 695.241 502.383 677.248C502.398 673.861 502.115 669.621 502.517 666.352L503.516 665.755Z"/><path fill="#EDAC44" d="M437.702 665.78C442.758 665.557 448.456 665.672 453.562 665.664C453.569 673.449 454.019 729 453.121 731.084L451.538 731.277L435.137 731.246C435.306 724.73 434.824 667.706 435.859 666.045L437.702 665.78Z"/><path fill="#EDAC44" d="M669.334 665.78C675.212 665.668 680.138 665.595 686.031 665.916C685.894 672.959 686.674 727.865 685.621 730.969L684.55 731.278L667.853 731.27C667.657 724.326 667.434 667.815 668.127 666.037L669.334 665.78Z"/><path fill="#EDAC44" d="M733.56 665.79C739.414 665.555 744.105 665.604 749.939 665.763C750.043 679.997 750.076 694.231 750.038 708.465C750.034 713.878 750.317 726.066 749.745 730.848L748.754 731.211C743.152 731.271 737.549 731.283 731.947 731.248L731.91 684.842C731.91 682.139 731.69 668.18 732.185 666.226L733.56 665.79Z"/><path fill="#EDAC44" d="M604.204 665.793C608.619 665.545 615.951 665.387 620.275 665.805C620.268 672.226 620.6 729.453 619.863 731.016L618.692 731.234L602.697 731.282C602.503 724.738 601.768 669.441 602.839 666.131L604.204 665.793Z"/><path fill="#EDAC44" d="M635.42 665.706C641.125 665.505 647.171 665.6 652.904 665.595L652.85 731.263L635.312 731.316C636.029 710.609 635.335 686.754 635.42 665.706Z"/><path fill="#EDAC44" d="M468.743 665.641C474.679 665.546 480.615 665.564 486.55 665.694L486.492 731.31C480.582 731.299 474.673 731.219 468.764 731.071L468.743 665.641Z"/><path fill="#EDAC44" d="M700.251 665.689C705.874 665.503 711.562 665.596 717.193 665.63C717.353 687.493 717.345 709.357 717.172 731.22C711.45 731.301 705.727 731.29 700.005 731.189C700.97 711.18 699.92 686.354 700.251 665.689Z"/><path fill="#17462B" d="M650.293 817.463C679.111 789.64 725.083 790.639 752.663 819.69C780.244 848.74 778.858 894.702 749.577 922.037C731.76 938.67 706.746 945.175 683.084 939.33C664.208 934.668 648.016 922.58 638.18 905.808C628.344 889.037 625.699 869.004 630.843 850.255C634.267 837.777 640.985 826.45 650.293 817.463ZM699.882 912.561C711.998 912.07 720.14 909.434 728.679 900.294C739.313 888.91 740.518 877.753 739.652 862.752C739.124 853.609 732.964 842 726.091 835.989C717.925 828.849 711.433 827.379 701.009 826.587C693.244 827.091 686.434 828.009 679.724 832.329C665.799 841.292 659.361 857.147 660.494 873.365C661.226 885.224 666.707 896.286 675.698 904.053C682.917 910.195 690.485 912.442 699.882 912.561Z"/><path fill="#011302" d="M650.293 817.463C679.111 789.64 725.083 790.639 752.663 819.69C780.244 848.74 778.858 894.702 749.577 922.037C749.604 918.262 757.93 910.066 760.187 906.008C772.162 884.48 773.932 859.876 763.089 837.253C755.238 820.64 741.001 807.907 723.618 801.951C703.601 795.08 686.231 797.012 667.524 806.479C661.843 809.354 654.318 817.402 650.293 817.463Z"/><path fill="#0C2A14" d="M630.843 850.255C632.077 852.249 631.41 857.436 631.098 859.881C626.586 895.253 646.267 927.895 682.198 937.024C683.413 938.294 683.12 937.553 683.084 939.33C664.208 934.668 648.016 922.58 638.18 905.808C628.344 889.037 625.699 869.004 630.843 850.255Z"/><path fill="#17462B" d="M195.046 800.271C207.327 800.539 219.572 800.224 231.954 800.344C251.515 800.533 273.004 797.869 288.074 813.277C292.873 818.184 296.723 826.235 296.95 833.015C299.129 845.757 293.952 862.147 280.657 866.583L280.492 867.692L281.112 867.923C310.697 879.2 308.209 921.909 281.421 934.418C268.29 940.55 248.018 939.247 233.482 939.218L200.494 939.174C198.218 939.206 191.646 939.344 191.565 936.317C190.415 893.431 191.365 850.258 191.045 807.3C191.014 803.191 190.946 801.316 195.046 800.271ZM222.174 912.33C234.184 912.511 257.759 914.475 267.13 908.72C270.857 904.531 271.498 900.164 270.714 894.792C268.606 880.359 256.159 882.741 245.374 882.409C237.606 882.169 230.001 881.78 222.179 881.806C222.632 891.976 222.631 902.16 222.174 912.33ZM222.49 856.03C235.613 856.156 250.375 858.153 262.386 852.217C264.66 848.331 265.886 845.285 265.858 840.57C265.748 822.345 235.248 827.812 222.16 827.217C222.742 836.451 222.499 846.683 222.49 856.03Z"/><path fill="#011302" d="M200.494 939.174C198.218 939.206 191.646 939.344 191.565 936.317C190.415 893.431 191.365 850.258 191.045 807.3C191.014 803.191 190.946 801.316 195.046 800.271C194.301 801.69 193.952 802.509 192.883 803.739C192.456 842.686 193.128 881.698 192.813 920.65C192.77 925.94 192.81 931.041 193.06 936.327C195.409 936.923 199.084 937.439 200.494 939.174Z"/><path fill="#011302" d="M296.95 833.015C299.129 845.757 293.952 862.147 280.657 866.583C281.164 864.996 281.751 864.533 283.153 863.707C291.987 858.505 297.044 842.833 296.95 833.015Z"/><path fill="#17462B" d="M511.451 800.189L512.009 800.227C524.414 800.986 538.07 800.174 550.729 800.328C569.416 800.555 587.726 798.798 601.903 814.084C612.608 825.626 614.17 849.817 602.138 861.336C600.506 862.899 594.816 866.203 594.262 867.627L595.757 868.358C603.771 871.555 609.045 876.435 612.507 884.495C616.407 893.575 616.569 905.732 612.835 914.92C610.627 920.352 607.939 923.303 605.034 928.058C584.459 941.139 574.302 939.279 550.473 939.231C543.303 939.217 532.926 939.531 526.035 939.074C521.1 939.209 510.826 940.206 507.229 937.424C506.501 935.511 506.414 933.464 506.342 931.434C505.936 919.972 505.666 805.172 507.011 802.487C507.858 800.794 509.797 800.524 511.451 800.189ZM537.59 912.332C548.658 912.491 571.36 914.427 579.658 908.845C584.137 904.368 583.211 901.621 583.378 895.699C583.7 884.276 573.773 882.236 564.687 882.137C555.607 882.038 546.802 881.684 537.834 881.716C537.813 891.518 538.015 902.623 537.59 912.332ZM537.819 856.024C547.267 856.192 569.312 857.841 576.173 852.46C578.486 848.633 579.738 845.109 579.661 840.554C579.399 825.26 561.575 827.462 551.004 827.309C546.569 827.244 542.182 827.381 537.787 827.317C537.795 836.837 537.706 846.52 537.819 856.024Z"/><path fill="#0C2A14" d="M526.035 939.074C521.1 939.209 510.826 940.206 507.229 937.424C506.501 935.511 506.414 933.464 506.342 931.434C505.936 919.972 505.666 805.172 507.011 802.487C507.858 800.794 509.797 800.524 511.451 800.189C510.174 801.53 508.939 803.085 508.963 805.056C509.458 846.786 507.947 889.284 508.886 930.945C508.924 932.384 509.02 933.821 509.174 935.252C510.731 936.552 523.59 938.976 526.035 939.074Z"/><path fill="#0C2A14" d="M595.757 868.358C603.771 871.555 609.045 876.435 612.507 884.495C616.407 893.575 616.569 905.732 612.835 914.92C610.627 920.352 607.939 923.303 605.034 928.058C604.934 927.644 604.553 925.837 604.753 925.476C607.206 921.04 610.549 916.1 611.867 911.206C615.281 898.524 614.054 883.594 603.148 874.801C601.012 873.079 597.192 870.395 595.757 868.358Z"/><path fill="#17462B" d="M858.962 800.514C866.628 800.199 874.501 800.36 882.188 800.279C884.957 800.25 888.913 800.007 890.748 802.107C891.49 806.67 854.758 860.387 849.709 868.099C851.946 872.238 856.388 878.326 859.224 882.493L877.654 910.02C882.412 917.06 887.515 924.484 891.706 931.883C892.973 934.12 893.248 935.105 892.522 937.293C890.925 938.735 890.378 938.679 888.178 939.168C883.38 939.112 862.38 940.515 860.193 937.085C850.834 922.414 840.687 907.228 832.135 892.108C821.388 905.706 813.462 924.733 802.139 937.848C800.954 939.222 774.131 941.647 771.126 936.691C771.068 927.452 806.751 880.254 813.248 867.214C801.395 847.537 787.06 828.21 776.059 807.886C774.706 805.386 774.227 803.34 775.036 800.596C780.298 800.294 802.797 799.156 806.451 802.268C810.831 805.997 828.672 841.784 832.471 842.411C841.455 831.148 849.595 810.036 858.962 800.514Z"/><path fill="#17462B" d="M379.326 800.747C380.838 800.561 382.359 800.45 383.883 800.416C417.229 799.716 451.183 800.678 484.571 800.445C485.963 800.435 489.571 802.002 488.728 805.827C487.499 811.403 489.339 822.773 486.858 828.191C475.837 830.257 461.229 829.359 449.847 829.338C450.224 853.192 449.964 877.734 449.919 901.626C449.957 905.831 450.815 934.096 449.016 937.223C447.233 940.323 423.439 940.039 419.102 937.442C417.757 934.894 418.279 841.139 418.172 829.095C405.65 829.334 391.917 829.774 379.519 828.767C376.888 821.727 377.025 816.238 377.824 808.769C378.116 806.044 378.985 803.972 379.275 801.263L379.326 800.747Z"/><path fill="#17462B" d="M329.916 800.671C335.114 800.209 352.195 799.811 356.833 801.017C359.75 804.249 358.856 833.138 358.848 839.549L358.813 888.953L358.811 917.436C358.832 923.237 358.988 929.391 358.545 935.182C358.42 936.808 357.417 937.849 356.354 939.031C351.255 939.382 332.942 940.07 328.813 937.668C326.849 932.577 327.895 901.131 327.839 893.627L327.77 844.091C327.699 831.719 327.401 819.08 328.018 806.728C328.152 804.043 328.256 802.759 329.916 800.671Z"/></svg>